%TF.GenerationSoftware,KiCad,Pcbnew,(6.0.0)*%
%TF.CreationDate,2023-05-02T22:40:52+02:00*%
%TF.ProjectId,7SegmentDisplay,37536567-6d65-46e7-9444-6973706c6179,rev?*%
%TF.SameCoordinates,Original*%
%TF.FileFunction,Paste,Top*%
%TF.FilePolarity,Positive*%
%FSLAX46Y46*%
G04 Gerber Fmt 4.6, Leading zero omitted, Abs format (unit mm)*
G04 Created by KiCad (PCBNEW (6.0.0)) date 2023-05-02 22:40:52*
%MOMM*%
%LPD*%
G01*
G04 APERTURE LIST*
G04 Aperture macros list*
%AMRoundRect*
0 Rectangle with rounded corners*
0 $1 Rounding radius*
0 $2 $3 $4 $5 $6 $7 $8 $9 X,Y pos of 4 corners*
0 Add a 4 corners polygon primitive as box body*
4,1,4,$2,$3,$4,$5,$6,$7,$8,$9,$2,$3,0*
0 Add four circle primitives for the rounded corners*
1,1,$1+$1,$2,$3*
1,1,$1+$1,$4,$5*
1,1,$1+$1,$6,$7*
1,1,$1+$1,$8,$9*
0 Add four rect primitives between the rounded corners*
20,1,$1+$1,$2,$3,$4,$5,0*
20,1,$1+$1,$4,$5,$6,$7,0*
20,1,$1+$1,$6,$7,$8,$9,0*
20,1,$1+$1,$8,$9,$2,$3,0*%
G04 Aperture macros list end*
%ADD10RoundRect,0.250000X-0.450000X0.262500X-0.450000X-0.262500X0.450000X-0.262500X0.450000X0.262500X0*%
%ADD11RoundRect,0.250000X0.250000X0.475000X-0.250000X0.475000X-0.250000X-0.475000X0.250000X-0.475000X0*%
%ADD12RoundRect,0.250000X0.450000X-0.262500X0.450000X0.262500X-0.450000X0.262500X-0.450000X-0.262500X0*%
%ADD13RoundRect,0.150000X-0.587500X-0.150000X0.587500X-0.150000X0.587500X0.150000X-0.587500X0.150000X0*%
%ADD14RoundRect,0.250000X-0.475000X0.250000X-0.475000X-0.250000X0.475000X-0.250000X0.475000X0.250000X0*%
%ADD15RoundRect,0.150000X0.587500X0.150000X-0.587500X0.150000X-0.587500X-0.150000X0.587500X-0.150000X0*%
G04 APERTURE END LIST*
D10*
%TO.C,R6*%
X88382255Y-98267144D03*
X88382255Y-96442144D03*
%TD*%
%TO.C,R8*%
X127584200Y-96422895D03*
X127584200Y-98247895D03*
%TD*%
D11*
%TO.C,C4*%
X130413800Y-79402995D03*
X128513800Y-79402995D03*
%TD*%
D12*
%TO.C,R3*%
X84343655Y-96442144D03*
X84343655Y-98267144D03*
%TD*%
D13*
%TO.C,Q6*%
X164970700Y-97255600D03*
X163095700Y-98205600D03*
X163095700Y-96305600D03*
%TD*%
D12*
%TO.C,R7*%
X129565400Y-98247895D03*
X129565400Y-96422895D03*
%TD*%
D11*
%TO.C,C2*%
X83292055Y-79422244D03*
X85192055Y-79422244D03*
%TD*%
D14*
%TO.C,C3*%
X125577600Y-96375195D03*
X125577600Y-98275195D03*
%TD*%
D10*
%TO.C,R2*%
X199034400Y-89384500D03*
X199034400Y-91209500D03*
%TD*%
%TO.C,R4*%
X82362455Y-98267144D03*
X82362455Y-96442144D03*
%TD*%
%TO.C,R14*%
X178816000Y-98218900D03*
X178816000Y-96393900D03*
%TD*%
D14*
%TO.C,C1*%
X80355855Y-98294444D03*
X80355855Y-96394444D03*
%TD*%
%TO.C,C5*%
X170789600Y-98246200D03*
X170789600Y-96346200D03*
%TD*%
D12*
%TO.C,R13*%
X176784000Y-96393900D03*
X176784000Y-98218900D03*
%TD*%
D15*
%TO.C,Q5*%
X183669700Y-97408000D03*
X185544700Y-96458000D03*
X185544700Y-98358000D03*
%TD*%
D10*
%TO.C,R12*%
X172796200Y-98218900D03*
X172796200Y-96393900D03*
%TD*%
%TO.C,R10*%
X133604000Y-96422895D03*
X133604000Y-98247895D03*
%TD*%
D12*
%TO.C,R1*%
X199034400Y-87221700D03*
X199034400Y-85396700D03*
%TD*%
D13*
%TO.C,Q4*%
X117883700Y-96334595D03*
X117883700Y-98234595D03*
X119758700Y-97284595D03*
%TD*%
D12*
%TO.C,R9*%
X131572000Y-98247895D03*
X131572000Y-96422895D03*
%TD*%
D15*
%TO.C,Q3*%
X140332700Y-98386995D03*
X140332700Y-96486995D03*
X138457700Y-97436995D03*
%TD*%
D11*
%TO.C,C6*%
X173725800Y-79374000D03*
X175625800Y-79374000D03*
%TD*%
D12*
%TO.C,R5*%
X86350255Y-96442144D03*
X86350255Y-98267144D03*
%TD*%
D13*
%TO.C,Q2*%
X74536955Y-97303844D03*
X72661955Y-98253844D03*
X72661955Y-96353844D03*
%TD*%
D15*
%TO.C,Q1*%
X93235955Y-97456244D03*
X95110955Y-96506244D03*
X95110955Y-98406244D03*
%TD*%
D12*
%TO.C,R11*%
X174777400Y-96393900D03*
X174777400Y-98218900D03*
%TD*%
M02*
