%TF.GenerationSoftware,KiCad,Pcbnew,(6.0.0)*%
%TF.CreationDate,2023-05-02T22:40:52+02:00*%
%TF.ProjectId,7SegmentDisplay,37536567-6d65-46e7-9444-6973706c6179,rev?*%
%TF.SameCoordinates,Original*%
%TF.FileFunction,Legend,Top*%
%TF.FilePolarity,Positive*%
%FSLAX46Y46*%
G04 Gerber Fmt 4.6, Leading zero omitted, Abs format (unit mm)*
G04 Created by KiCad (PCBNEW (6.0.0)) date 2023-05-02 22:40:52*
%MOMM*%
%LPD*%
G01*
G04 APERTURE LIST*
%ADD10C,0.150000*%
%ADD11C,0.120000*%
G04 APERTURE END LIST*
D10*
X100442780Y-93392047D02*
X101157066Y-93392047D01*
X101299923Y-93439666D01*
X101395161Y-93534904D01*
X101442780Y-93677761D01*
X101442780Y-93773000D01*
X101442780Y-92439666D02*
X101442780Y-92915857D01*
X100442780Y-92915857D01*
X101347542Y-91534904D02*
X101395161Y-91582523D01*
X101442780Y-91725380D01*
X101442780Y-91820619D01*
X101395161Y-91963476D01*
X101299923Y-92058714D01*
X101204685Y-92106333D01*
X101014209Y-92153952D01*
X100871352Y-92153952D01*
X100680876Y-92106333D01*
X100585638Y-92058714D01*
X100490400Y-91963476D01*
X100442780Y-91820619D01*
X100442780Y-91725380D01*
X100490400Y-91582523D01*
X100538019Y-91534904D01*
X100442780Y-90820619D02*
X101157066Y-90820619D01*
X101299923Y-90868238D01*
X101395161Y-90963476D01*
X101442780Y-91106333D01*
X101442780Y-91201571D01*
X101442780Y-89868238D02*
X101442780Y-90344428D01*
X100442780Y-90344428D01*
X101347542Y-88963476D02*
X101395161Y-89011095D01*
X101442780Y-89153952D01*
X101442780Y-89249190D01*
X101395161Y-89392047D01*
X101299923Y-89487285D01*
X101204685Y-89534904D01*
X101014209Y-89582523D01*
X100871352Y-89582523D01*
X100680876Y-89534904D01*
X100585638Y-89487285D01*
X100490400Y-89392047D01*
X100442780Y-89249190D01*
X100442780Y-89153952D01*
X100490400Y-89011095D01*
X100538019Y-88963476D01*
X100442780Y-88249190D02*
X101157066Y-88249190D01*
X101299923Y-88296809D01*
X101395161Y-88392047D01*
X101442780Y-88534904D01*
X101442780Y-88630142D01*
X101442780Y-87296809D02*
X101442780Y-87773000D01*
X100442780Y-87773000D01*
X101347542Y-86392047D02*
X101395161Y-86439666D01*
X101442780Y-86582523D01*
X101442780Y-86677761D01*
X101395161Y-86820619D01*
X101299923Y-86915857D01*
X101204685Y-86963476D01*
X101014209Y-87011095D01*
X100871352Y-87011095D01*
X100680876Y-86963476D01*
X100585638Y-86915857D01*
X100490400Y-86820619D01*
X100442780Y-86677761D01*
X100442780Y-86582523D01*
X100490400Y-86439666D01*
X100538019Y-86392047D01*
X100442780Y-85677761D02*
X101157066Y-85677761D01*
X101299923Y-85725380D01*
X101395161Y-85820619D01*
X101442780Y-85963476D01*
X101442780Y-86058714D01*
X101442780Y-84725380D02*
X101442780Y-85201571D01*
X100442780Y-85201571D01*
X101347542Y-83820619D02*
X101395161Y-83868238D01*
X101442780Y-84011095D01*
X101442780Y-84106333D01*
X101395161Y-84249190D01*
X101299923Y-84344428D01*
X101204685Y-84392047D01*
X101014209Y-84439666D01*
X100871352Y-84439666D01*
X100680876Y-84392047D01*
X100585638Y-84344428D01*
X100490400Y-84249190D01*
X100442780Y-84106333D01*
X100442780Y-84011095D01*
X100490400Y-83868238D01*
X100538019Y-83820619D01*
X200120428Y-99531514D02*
X200358523Y-100198180D01*
X200596619Y-99531514D01*
X201168047Y-99198180D02*
X201263285Y-99198180D01*
X201358523Y-99245800D01*
X201406142Y-99293419D01*
X201453761Y-99388657D01*
X201501380Y-99579133D01*
X201501380Y-99817228D01*
X201453761Y-100007704D01*
X201406142Y-100102942D01*
X201358523Y-100150561D01*
X201263285Y-100198180D01*
X201168047Y-100198180D01*
X201072809Y-100150561D01*
X201025190Y-100102942D01*
X200977571Y-100007704D01*
X200929952Y-99817228D01*
X200929952Y-99579133D01*
X200977571Y-99388657D01*
X201025190Y-99293419D01*
X201072809Y-99245800D01*
X201168047Y-99198180D01*
X201929952Y-100102942D02*
X201977571Y-100150561D01*
X201929952Y-100198180D01*
X201882333Y-100150561D01*
X201929952Y-100102942D01*
X201929952Y-100198180D01*
X202929952Y-100198180D02*
X202358523Y-100198180D01*
X202644238Y-100198180D02*
X202644238Y-99198180D01*
X202549000Y-99341038D01*
X202453761Y-99436276D01*
X202358523Y-99483895D01*
X146538133Y-78582780D02*
X146538133Y-77582780D01*
X146776228Y-77582780D01*
X146919085Y-77630400D01*
X147014323Y-77725638D01*
X147061942Y-77820876D01*
X147109561Y-78011352D01*
X147109561Y-78154209D01*
X147061942Y-78344685D01*
X147014323Y-78439923D01*
X146919085Y-78535161D01*
X146776228Y-78582780D01*
X146538133Y-78582780D01*
X147919085Y-78535161D02*
X147823847Y-78582780D01*
X147633371Y-78582780D01*
X147538133Y-78535161D01*
X147490514Y-78439923D01*
X147490514Y-78058971D01*
X147538133Y-77963733D01*
X147633371Y-77916114D01*
X147823847Y-77916114D01*
X147919085Y-77963733D01*
X147966704Y-78058971D01*
X147966704Y-78154209D01*
X147490514Y-78249447D01*
X148347657Y-78535161D02*
X148442895Y-78582780D01*
X148633371Y-78582780D01*
X148728609Y-78535161D01*
X148776228Y-78439923D01*
X148776228Y-78392304D01*
X148728609Y-78297066D01*
X148633371Y-78249447D01*
X148490514Y-78249447D01*
X148395276Y-78201828D01*
X148347657Y-78106590D01*
X148347657Y-78058971D01*
X148395276Y-77963733D01*
X148490514Y-77916114D01*
X148633371Y-77916114D01*
X148728609Y-77963733D01*
X149204800Y-78582780D02*
X149204800Y-77916114D01*
X149204800Y-77582780D02*
X149157180Y-77630400D01*
X149204800Y-77678019D01*
X149252419Y-77630400D01*
X149204800Y-77582780D01*
X149204800Y-77678019D01*
X150109561Y-77916114D02*
X150109561Y-78725638D01*
X150061942Y-78820876D01*
X150014323Y-78868495D01*
X149919085Y-78916114D01*
X149776228Y-78916114D01*
X149680990Y-78868495D01*
X150109561Y-78535161D02*
X150014323Y-78582780D01*
X149823847Y-78582780D01*
X149728609Y-78535161D01*
X149680990Y-78487542D01*
X149633371Y-78392304D01*
X149633371Y-78106590D01*
X149680990Y-78011352D01*
X149728609Y-77963733D01*
X149823847Y-77916114D01*
X150014323Y-77916114D01*
X150109561Y-77963733D01*
X150585752Y-77916114D02*
X150585752Y-78582780D01*
X150585752Y-78011352D02*
X150633371Y-77963733D01*
X150728609Y-77916114D01*
X150871466Y-77916114D01*
X150966704Y-77963733D01*
X151014323Y-78058971D01*
X151014323Y-78582780D01*
X152252419Y-78582780D02*
X152252419Y-77582780D01*
X152252419Y-77963733D02*
X152347657Y-77916114D01*
X152538133Y-77916114D01*
X152633371Y-77963733D01*
X152680990Y-78011352D01*
X152728609Y-78106590D01*
X152728609Y-78392304D01*
X152680990Y-78487542D01*
X152633371Y-78535161D01*
X152538133Y-78582780D01*
X152347657Y-78582780D01*
X152252419Y-78535161D01*
X153061942Y-77916114D02*
X153300038Y-78582780D01*
X153538133Y-77916114D02*
X153300038Y-78582780D01*
X153204800Y-78820876D01*
X153157180Y-78868495D01*
X153061942Y-78916114D01*
X153919085Y-78487542D02*
X153966704Y-78535161D01*
X153919085Y-78582780D01*
X153871466Y-78535161D01*
X153919085Y-78487542D01*
X153919085Y-78582780D01*
X153919085Y-77963733D02*
X153966704Y-78011352D01*
X153919085Y-78058971D01*
X153871466Y-78011352D01*
X153919085Y-77963733D01*
X153919085Y-78058971D01*
X155061942Y-77582780D02*
X155728609Y-77582780D01*
X155061942Y-78582780D01*
X155728609Y-78582780D01*
X156109561Y-78582780D02*
X156109561Y-77916114D01*
X156109561Y-77582780D02*
X156061942Y-77630400D01*
X156109561Y-77678019D01*
X156157180Y-77630400D01*
X156109561Y-77582780D01*
X156109561Y-77678019D01*
X156728609Y-78582780D02*
X156633371Y-78535161D01*
X156585752Y-78439923D01*
X156585752Y-77582780D01*
X157109561Y-78582780D02*
X157109561Y-77916114D01*
X157109561Y-77582780D02*
X157061942Y-77630400D01*
X157109561Y-77678019D01*
X157157180Y-77630400D01*
X157109561Y-77582780D01*
X157109561Y-77678019D01*
X157490514Y-77916114D02*
X158014323Y-77916114D01*
X157490514Y-78582780D01*
X158014323Y-78582780D01*
X158395276Y-78582780D02*
X158395276Y-77916114D01*
X158395276Y-77582780D02*
X158347657Y-77630400D01*
X158395276Y-77678019D01*
X158442895Y-77630400D01*
X158395276Y-77582780D01*
X158395276Y-77678019D01*
X158871466Y-78582780D02*
X158871466Y-77582780D01*
X98762561Y-78481180D02*
X98191133Y-78481180D01*
X98476847Y-78481180D02*
X98476847Y-77481180D01*
X98381609Y-77624038D01*
X98286371Y-77719276D01*
X98191133Y-77766895D01*
X99143514Y-77576419D02*
X99191133Y-77528800D01*
X99286371Y-77481180D01*
X99524466Y-77481180D01*
X99619704Y-77528800D01*
X99667323Y-77576419D01*
X99714942Y-77671657D01*
X99714942Y-77766895D01*
X99667323Y-77909752D01*
X99095895Y-78481180D01*
X99714942Y-78481180D01*
X100048276Y-78481180D02*
X100572085Y-77814514D01*
X100048276Y-77814514D02*
X100572085Y-78481180D01*
X101619704Y-77481180D02*
X102286371Y-77481180D01*
X101857799Y-78481180D01*
X103381609Y-78433561D02*
X103524466Y-78481180D01*
X103762561Y-78481180D01*
X103857799Y-78433561D01*
X103905419Y-78385942D01*
X103953038Y-78290704D01*
X103953038Y-78195466D01*
X103905419Y-78100228D01*
X103857799Y-78052609D01*
X103762561Y-78004990D01*
X103572085Y-77957371D01*
X103476847Y-77909752D01*
X103429228Y-77862133D01*
X103381609Y-77766895D01*
X103381609Y-77671657D01*
X103429228Y-77576419D01*
X103476847Y-77528800D01*
X103572085Y-77481180D01*
X103810180Y-77481180D01*
X103953038Y-77528800D01*
X104762561Y-78433561D02*
X104667323Y-78481180D01*
X104476847Y-78481180D01*
X104381609Y-78433561D01*
X104333990Y-78338323D01*
X104333990Y-77957371D01*
X104381609Y-77862133D01*
X104476847Y-77814514D01*
X104667323Y-77814514D01*
X104762561Y-77862133D01*
X104810180Y-77957371D01*
X104810180Y-78052609D01*
X104333990Y-78147847D01*
X105667323Y-77814514D02*
X105667323Y-78624038D01*
X105619704Y-78719276D01*
X105572085Y-78766895D01*
X105476847Y-78814514D01*
X105333990Y-78814514D01*
X105238752Y-78766895D01*
X105667323Y-78433561D02*
X105572085Y-78481180D01*
X105381609Y-78481180D01*
X105286371Y-78433561D01*
X105238752Y-78385942D01*
X105191133Y-78290704D01*
X105191133Y-78004990D01*
X105238752Y-77909752D01*
X105286371Y-77862133D01*
X105381609Y-77814514D01*
X105572085Y-77814514D01*
X105667323Y-77862133D01*
X106143514Y-78481180D02*
X106143514Y-77814514D01*
X106143514Y-77909752D02*
X106191133Y-77862133D01*
X106286371Y-77814514D01*
X106429228Y-77814514D01*
X106524466Y-77862133D01*
X106572085Y-77957371D01*
X106572085Y-78481180D01*
X106572085Y-77957371D02*
X106619704Y-77862133D01*
X106714942Y-77814514D01*
X106857799Y-77814514D01*
X106953038Y-77862133D01*
X107000657Y-77957371D01*
X107000657Y-78481180D01*
X107857800Y-78433561D02*
X107762561Y-78481180D01*
X107572085Y-78481180D01*
X107476847Y-78433561D01*
X107429228Y-78338323D01*
X107429228Y-77957371D01*
X107476847Y-77862133D01*
X107572085Y-77814514D01*
X107762561Y-77814514D01*
X107857800Y-77862133D01*
X107905419Y-77957371D01*
X107905419Y-78052609D01*
X107429228Y-78147847D01*
X108333990Y-77814514D02*
X108333990Y-78481180D01*
X108333990Y-77909752D02*
X108381609Y-77862133D01*
X108476847Y-77814514D01*
X108619704Y-77814514D01*
X108714942Y-77862133D01*
X108762561Y-77957371D01*
X108762561Y-78481180D01*
X109095895Y-77814514D02*
X109476847Y-77814514D01*
X109238752Y-77481180D02*
X109238752Y-78338323D01*
X109286371Y-78433561D01*
X109381609Y-78481180D01*
X109476847Y-78481180D01*
X110572085Y-78481180D02*
X110572085Y-77481180D01*
X110810180Y-77481180D01*
X110953038Y-77528800D01*
X111048276Y-77624038D01*
X111095895Y-77719276D01*
X111143514Y-77909752D01*
X111143514Y-78052609D01*
X111095895Y-78243085D01*
X111048276Y-78338323D01*
X110953038Y-78433561D01*
X110810180Y-78481180D01*
X110572085Y-78481180D01*
X111572085Y-78481180D02*
X111572085Y-77814514D01*
X111572085Y-77481180D02*
X111524466Y-77528800D01*
X111572085Y-77576419D01*
X111619704Y-77528800D01*
X111572085Y-77481180D01*
X111572085Y-77576419D01*
X112000657Y-78433561D02*
X112095895Y-78481180D01*
X112286371Y-78481180D01*
X112381609Y-78433561D01*
X112429228Y-78338323D01*
X112429228Y-78290704D01*
X112381609Y-78195466D01*
X112286371Y-78147847D01*
X112143514Y-78147847D01*
X112048276Y-78100228D01*
X112000657Y-78004990D01*
X112000657Y-77957371D01*
X112048276Y-77862133D01*
X112143514Y-77814514D01*
X112286371Y-77814514D01*
X112381609Y-77862133D01*
X112857799Y-77814514D02*
X112857799Y-78814514D01*
X112857799Y-77862133D02*
X112953038Y-77814514D01*
X113143514Y-77814514D01*
X113238752Y-77862133D01*
X113286371Y-77909752D01*
X113333990Y-78004990D01*
X113333990Y-78290704D01*
X113286371Y-78385942D01*
X113238752Y-78433561D01*
X113143514Y-78481180D01*
X112953038Y-78481180D01*
X112857799Y-78433561D01*
X113905419Y-78481180D02*
X113810180Y-78433561D01*
X113762561Y-78338323D01*
X113762561Y-77481180D01*
X114714942Y-78481180D02*
X114714942Y-77957371D01*
X114667323Y-77862133D01*
X114572085Y-77814514D01*
X114381609Y-77814514D01*
X114286371Y-77862133D01*
X114714942Y-78433561D02*
X114619704Y-78481180D01*
X114381609Y-78481180D01*
X114286371Y-78433561D01*
X114238752Y-78338323D01*
X114238752Y-78243085D01*
X114286371Y-78147847D01*
X114381609Y-78100228D01*
X114619704Y-78100228D01*
X114714942Y-78052609D01*
X115095895Y-77814514D02*
X115333990Y-78481180D01*
X115572085Y-77814514D02*
X115333990Y-78481180D01*
X115238752Y-78719276D01*
X115191133Y-78766895D01*
X115095895Y-78814514D01*
X202057000Y-85140800D02*
X202057000Y-85166200D01*
X201599800Y-83718400D02*
X202057000Y-85140800D01*
X197459600Y-76809600D02*
X201498200Y-76809600D01*
X201498200Y-76809600D02*
X201498200Y-83743800D01*
X201498200Y-83743800D02*
X197459600Y-83743800D01*
X197459600Y-83743800D02*
X197459600Y-76809600D01*
X198704295Y-77450600D02*
X198609057Y-77402980D01*
X198466200Y-77402980D01*
X198323342Y-77450600D01*
X198228104Y-77545838D01*
X198180485Y-77641076D01*
X198132866Y-77831552D01*
X198132866Y-77974409D01*
X198180485Y-78164885D01*
X198228104Y-78260123D01*
X198323342Y-78355361D01*
X198466200Y-78402980D01*
X198561438Y-78402980D01*
X198704295Y-78355361D01*
X198751914Y-78307742D01*
X198751914Y-77974409D01*
X198561438Y-77974409D01*
X199180485Y-78402980D02*
X199180485Y-77402980D01*
X199751914Y-78402980D01*
X199751914Y-77402980D01*
X200228104Y-78402980D02*
X200228104Y-77402980D01*
X200466200Y-77402980D01*
X200609057Y-77450600D01*
X200704295Y-77545838D01*
X200751914Y-77641076D01*
X200799533Y-77831552D01*
X200799533Y-77974409D01*
X200751914Y-78164885D01*
X200704295Y-78260123D01*
X200609057Y-78355361D01*
X200466200Y-78402980D01*
X200228104Y-78402980D01*
X198180485Y-79632028D02*
X198942390Y-79632028D01*
X198561438Y-80012980D02*
X198561438Y-79251076D01*
X199894771Y-79012980D02*
X199418580Y-79012980D01*
X199370961Y-79489171D01*
X199418580Y-79441552D01*
X199513819Y-79393933D01*
X199751914Y-79393933D01*
X199847152Y-79441552D01*
X199894771Y-79489171D01*
X199942390Y-79584409D01*
X199942390Y-79822504D01*
X199894771Y-79917742D01*
X199847152Y-79965361D01*
X199751914Y-80012980D01*
X199513819Y-80012980D01*
X199418580Y-79965361D01*
X199370961Y-79917742D01*
X200228104Y-79012980D02*
X200561438Y-80012980D01*
X200894771Y-79012980D01*
X198251914Y-81575361D02*
X198394771Y-81622980D01*
X198632866Y-81622980D01*
X198728104Y-81575361D01*
X198775723Y-81527742D01*
X198823342Y-81432504D01*
X198823342Y-81337266D01*
X198775723Y-81242028D01*
X198728104Y-81194409D01*
X198632866Y-81146790D01*
X198442390Y-81099171D01*
X198347152Y-81051552D01*
X198299533Y-81003933D01*
X198251914Y-80908695D01*
X198251914Y-80813457D01*
X198299533Y-80718219D01*
X198347152Y-80670600D01*
X198442390Y-80622980D01*
X198680485Y-80622980D01*
X198823342Y-80670600D01*
X199251914Y-81622980D02*
X199251914Y-80622980D01*
X199490009Y-80622980D01*
X199632866Y-80670600D01*
X199728104Y-80765838D01*
X199775723Y-80861076D01*
X199823342Y-81051552D01*
X199823342Y-81194409D01*
X199775723Y-81384885D01*
X199728104Y-81480123D01*
X199632866Y-81575361D01*
X199490009Y-81622980D01*
X199251914Y-81622980D01*
X200204295Y-81337266D02*
X200680485Y-81337266D01*
X200109057Y-81622980D02*
X200442390Y-80622980D01*
X200775723Y-81622980D01*
X198275723Y-83185361D02*
X198418580Y-83232980D01*
X198656676Y-83232980D01*
X198751914Y-83185361D01*
X198799533Y-83137742D01*
X198847152Y-83042504D01*
X198847152Y-82947266D01*
X198799533Y-82852028D01*
X198751914Y-82804409D01*
X198656676Y-82756790D01*
X198466200Y-82709171D01*
X198370961Y-82661552D01*
X198323342Y-82613933D01*
X198275723Y-82518695D01*
X198275723Y-82423457D01*
X198323342Y-82328219D01*
X198370961Y-82280600D01*
X198466200Y-82232980D01*
X198704295Y-82232980D01*
X198847152Y-82280600D01*
X199847152Y-83137742D02*
X199799533Y-83185361D01*
X199656676Y-83232980D01*
X199561438Y-83232980D01*
X199418580Y-83185361D01*
X199323342Y-83090123D01*
X199275723Y-82994885D01*
X199228104Y-82804409D01*
X199228104Y-82661552D01*
X199275723Y-82471076D01*
X199323342Y-82375838D01*
X199418580Y-82280600D01*
X199561438Y-82232980D01*
X199656676Y-82232980D01*
X199799533Y-82280600D01*
X199847152Y-82328219D01*
X200751914Y-83232980D02*
X200275723Y-83232980D01*
X200275723Y-82232980D01*
X59007523Y-86129761D02*
X59150380Y-86177380D01*
X59388476Y-86177380D01*
X59483714Y-86129761D01*
X59531333Y-86082142D01*
X59578952Y-85986904D01*
X59578952Y-85891666D01*
X59531333Y-85796428D01*
X59483714Y-85748809D01*
X59388476Y-85701190D01*
X59198000Y-85653571D01*
X59102761Y-85605952D01*
X59055142Y-85558333D01*
X59007523Y-85463095D01*
X59007523Y-85367857D01*
X59055142Y-85272619D01*
X59102761Y-85225000D01*
X59198000Y-85177380D01*
X59436095Y-85177380D01*
X59578952Y-85225000D01*
X60578952Y-86082142D02*
X60531333Y-86129761D01*
X60388476Y-86177380D01*
X60293238Y-86177380D01*
X60150380Y-86129761D01*
X60055142Y-86034523D01*
X60007523Y-85939285D01*
X59959904Y-85748809D01*
X59959904Y-85605952D01*
X60007523Y-85415476D01*
X60055142Y-85320238D01*
X60150380Y-85225000D01*
X60293238Y-85177380D01*
X60388476Y-85177380D01*
X60531333Y-85225000D01*
X60578952Y-85272619D01*
X61483714Y-86177380D02*
X61007523Y-86177380D01*
X61007523Y-85177380D01*
X59009114Y-87933161D02*
X59151971Y-87980780D01*
X59390066Y-87980780D01*
X59485304Y-87933161D01*
X59532923Y-87885542D01*
X59580542Y-87790304D01*
X59580542Y-87695066D01*
X59532923Y-87599828D01*
X59485304Y-87552209D01*
X59390066Y-87504590D01*
X59199590Y-87456971D01*
X59104352Y-87409352D01*
X59056733Y-87361733D01*
X59009114Y-87266495D01*
X59009114Y-87171257D01*
X59056733Y-87076019D01*
X59104352Y-87028400D01*
X59199590Y-86980780D01*
X59437685Y-86980780D01*
X59580542Y-87028400D01*
X60009114Y-87980780D02*
X60009114Y-86980780D01*
X60247209Y-86980780D01*
X60390066Y-87028400D01*
X60485304Y-87123638D01*
X60532923Y-87218876D01*
X60580542Y-87409352D01*
X60580542Y-87552209D01*
X60532923Y-87742685D01*
X60485304Y-87837923D01*
X60390066Y-87933161D01*
X60247209Y-87980780D01*
X60009114Y-87980780D01*
X60961495Y-87695066D02*
X61437685Y-87695066D01*
X60866257Y-87980780D02*
X61199590Y-86980780D01*
X61532923Y-87980780D01*
X58810685Y-89631828D02*
X59572590Y-89631828D01*
X59191638Y-90012780D02*
X59191638Y-89250876D01*
X60524971Y-89012780D02*
X60048780Y-89012780D01*
X60001161Y-89488971D01*
X60048780Y-89441352D01*
X60144019Y-89393733D01*
X60382114Y-89393733D01*
X60477352Y-89441352D01*
X60524971Y-89488971D01*
X60572590Y-89584209D01*
X60572590Y-89822304D01*
X60524971Y-89917542D01*
X60477352Y-89965161D01*
X60382114Y-90012780D01*
X60144019Y-90012780D01*
X60048780Y-89965161D01*
X60001161Y-89917542D01*
X60858304Y-89012780D02*
X61191638Y-90012780D01*
X61524971Y-89012780D01*
X59385295Y-91244800D02*
X59290057Y-91197180D01*
X59147200Y-91197180D01*
X59004342Y-91244800D01*
X58909104Y-91340038D01*
X58861485Y-91435276D01*
X58813866Y-91625752D01*
X58813866Y-91768609D01*
X58861485Y-91959085D01*
X58909104Y-92054323D01*
X59004342Y-92149561D01*
X59147200Y-92197180D01*
X59242438Y-92197180D01*
X59385295Y-92149561D01*
X59432914Y-92101942D01*
X59432914Y-91768609D01*
X59242438Y-91768609D01*
X59861485Y-92197180D02*
X59861485Y-91197180D01*
X60432914Y-92197180D01*
X60432914Y-91197180D01*
X60909104Y-92197180D02*
X60909104Y-91197180D01*
X61147200Y-91197180D01*
X61290057Y-91244800D01*
X61385295Y-91340038D01*
X61432914Y-91435276D01*
X61480533Y-91625752D01*
X61480533Y-91768609D01*
X61432914Y-91959085D01*
X61385295Y-92054323D01*
X61290057Y-92149561D01*
X61147200Y-92197180D01*
X60909104Y-92197180D01*
%TO.C,U13*%
X190481604Y-79614280D02*
X190481604Y-80423804D01*
X190529223Y-80519042D01*
X190576842Y-80566661D01*
X190672080Y-80614280D01*
X190862557Y-80614280D01*
X190957795Y-80566661D01*
X191005414Y-80519042D01*
X191053033Y-80423804D01*
X191053033Y-79614280D01*
X192053033Y-80614280D02*
X191481604Y-80614280D01*
X191767319Y-80614280D02*
X191767319Y-79614280D01*
X191672080Y-79757138D01*
X191576842Y-79852376D01*
X191481604Y-79899995D01*
X192386366Y-79614280D02*
X193005414Y-79614280D01*
X192672080Y-79995233D01*
X192814938Y-79995233D01*
X192910176Y-80042852D01*
X192957795Y-80090471D01*
X193005414Y-80185709D01*
X193005414Y-80423804D01*
X192957795Y-80519042D01*
X192910176Y-80566661D01*
X192814938Y-80614280D01*
X192529223Y-80614280D01*
X192433985Y-80566661D01*
X192386366Y-80519042D01*
%TO.C,R6*%
X90484635Y-97521310D02*
X90008445Y-97854644D01*
X90484635Y-98092739D02*
X89484635Y-98092739D01*
X89484635Y-97711786D01*
X89532255Y-97616548D01*
X89579874Y-97568929D01*
X89675112Y-97521310D01*
X89817969Y-97521310D01*
X89913207Y-97568929D01*
X89960826Y-97616548D01*
X90008445Y-97711786D01*
X90008445Y-98092739D01*
X89484635Y-96664167D02*
X89484635Y-96854644D01*
X89532255Y-96949882D01*
X89579874Y-96997501D01*
X89722731Y-97092739D01*
X89913207Y-97140358D01*
X90294159Y-97140358D01*
X90389397Y-97092739D01*
X90437016Y-97045120D01*
X90484635Y-96949882D01*
X90484635Y-96759405D01*
X90437016Y-96664167D01*
X90389397Y-96616548D01*
X90294159Y-96568929D01*
X90056064Y-96568929D01*
X89960826Y-96616548D01*
X89913207Y-96664167D01*
X89865588Y-96759405D01*
X89865588Y-96949882D01*
X89913207Y-97045120D01*
X89960826Y-97092739D01*
X90056064Y-97140358D01*
%TO.C,U12*%
X156572604Y-79639680D02*
X156572604Y-80449204D01*
X156620223Y-80544442D01*
X156667842Y-80592061D01*
X156763080Y-80639680D01*
X156953557Y-80639680D01*
X157048795Y-80592061D01*
X157096414Y-80544442D01*
X157144033Y-80449204D01*
X157144033Y-79639680D01*
X158144033Y-80639680D02*
X157572604Y-80639680D01*
X157858319Y-80639680D02*
X157858319Y-79639680D01*
X157763080Y-79782538D01*
X157667842Y-79877776D01*
X157572604Y-79925395D01*
X158524985Y-79734919D02*
X158572604Y-79687300D01*
X158667842Y-79639680D01*
X158905938Y-79639680D01*
X159001176Y-79687300D01*
X159048795Y-79734919D01*
X159096414Y-79830157D01*
X159096414Y-79925395D01*
X159048795Y-80068252D01*
X158477366Y-80639680D01*
X159096414Y-80639680D01*
%TO.C,U1*%
X89221050Y-79662524D02*
X89221050Y-80472048D01*
X89268669Y-80567286D01*
X89316288Y-80614905D01*
X89411526Y-80662524D01*
X89602002Y-80662524D01*
X89697240Y-80614905D01*
X89744859Y-80567286D01*
X89792478Y-80472048D01*
X89792478Y-79662524D01*
X90792478Y-80662524D02*
X90221050Y-80662524D01*
X90506764Y-80662524D02*
X90506764Y-79662524D01*
X90411526Y-79805382D01*
X90316288Y-79900620D01*
X90221050Y-79948239D01*
%TO.C,R8*%
X127442933Y-100172780D02*
X127109600Y-99696590D01*
X126871504Y-100172780D02*
X126871504Y-99172780D01*
X127252457Y-99172780D01*
X127347695Y-99220400D01*
X127395314Y-99268019D01*
X127442933Y-99363257D01*
X127442933Y-99506114D01*
X127395314Y-99601352D01*
X127347695Y-99648971D01*
X127252457Y-99696590D01*
X126871504Y-99696590D01*
X128014361Y-99601352D02*
X127919123Y-99553733D01*
X127871504Y-99506114D01*
X127823885Y-99410876D01*
X127823885Y-99363257D01*
X127871504Y-99268019D01*
X127919123Y-99220400D01*
X128014361Y-99172780D01*
X128204838Y-99172780D01*
X128300076Y-99220400D01*
X128347695Y-99268019D01*
X128395314Y-99363257D01*
X128395314Y-99410876D01*
X128347695Y-99506114D01*
X128300076Y-99553733D01*
X128204838Y-99601352D01*
X128014361Y-99601352D01*
X127919123Y-99648971D01*
X127871504Y-99696590D01*
X127823885Y-99791828D01*
X127823885Y-99982304D01*
X127871504Y-100077542D01*
X127919123Y-100125161D01*
X128014361Y-100172780D01*
X128204838Y-100172780D01*
X128300076Y-100125161D01*
X128347695Y-100077542D01*
X128395314Y-99982304D01*
X128395314Y-99791828D01*
X128347695Y-99696590D01*
X128300076Y-99648971D01*
X128204838Y-99601352D01*
%TO.C,C4*%
X129322533Y-77979542D02*
X129274914Y-78027161D01*
X129132057Y-78074780D01*
X129036819Y-78074780D01*
X128893961Y-78027161D01*
X128798723Y-77931923D01*
X128751104Y-77836685D01*
X128703485Y-77646209D01*
X128703485Y-77503352D01*
X128751104Y-77312876D01*
X128798723Y-77217638D01*
X128893961Y-77122400D01*
X129036819Y-77074780D01*
X129132057Y-77074780D01*
X129274914Y-77122400D01*
X129322533Y-77170019D01*
X130179676Y-77408114D02*
X130179676Y-78074780D01*
X129941580Y-77027161D02*
X129703485Y-77741447D01*
X130322533Y-77741447D01*
%TO.C,U3*%
X100524050Y-79662524D02*
X100524050Y-80472048D01*
X100571669Y-80567286D01*
X100619288Y-80614905D01*
X100714526Y-80662524D01*
X100905002Y-80662524D01*
X101000240Y-80614905D01*
X101047859Y-80567286D01*
X101095478Y-80472048D01*
X101095478Y-79662524D01*
X101476431Y-79662524D02*
X102095478Y-79662524D01*
X101762145Y-80043477D01*
X101905002Y-80043477D01*
X102000240Y-80091096D01*
X102047859Y-80138715D01*
X102095478Y-80233953D01*
X102095478Y-80472048D01*
X102047859Y-80567286D01*
X102000240Y-80614905D01*
X101905002Y-80662524D01*
X101619288Y-80662524D01*
X101524050Y-80614905D01*
X101476431Y-80567286D01*
%TO.C,R3*%
X84186733Y-95727780D02*
X83853400Y-95251590D01*
X83615304Y-95727780D02*
X83615304Y-94727780D01*
X83996257Y-94727780D01*
X84091495Y-94775400D01*
X84139114Y-94823019D01*
X84186733Y-94918257D01*
X84186733Y-95061114D01*
X84139114Y-95156352D01*
X84091495Y-95203971D01*
X83996257Y-95251590D01*
X83615304Y-95251590D01*
X84520066Y-94727780D02*
X85139114Y-94727780D01*
X84805780Y-95108733D01*
X84948638Y-95108733D01*
X85043876Y-95156352D01*
X85091495Y-95203971D01*
X85139114Y-95299209D01*
X85139114Y-95537304D01*
X85091495Y-95632542D01*
X85043876Y-95680161D01*
X84948638Y-95727780D01*
X84662923Y-95727780D01*
X84567685Y-95680161D01*
X84520066Y-95632542D01*
%TO.C,U11*%
X179178604Y-79614280D02*
X179178604Y-80423804D01*
X179226223Y-80519042D01*
X179273842Y-80566661D01*
X179369080Y-80614280D01*
X179559557Y-80614280D01*
X179654795Y-80566661D01*
X179702414Y-80519042D01*
X179750033Y-80423804D01*
X179750033Y-79614280D01*
X180750033Y-80614280D02*
X180178604Y-80614280D01*
X180464319Y-80614280D02*
X180464319Y-79614280D01*
X180369080Y-79757138D01*
X180273842Y-79852376D01*
X180178604Y-79899995D01*
X181702414Y-80614280D02*
X181130985Y-80614280D01*
X181416700Y-80614280D02*
X181416700Y-79614280D01*
X181321461Y-79757138D01*
X181226223Y-79852376D01*
X181130985Y-79899995D01*
%TO.C,Q6*%
X160966161Y-98947219D02*
X160870923Y-98899600D01*
X160775685Y-98804361D01*
X160632828Y-98661504D01*
X160537590Y-98613885D01*
X160442352Y-98613885D01*
X160489971Y-98851980D02*
X160394733Y-98804361D01*
X160299495Y-98709123D01*
X160251876Y-98518647D01*
X160251876Y-98185314D01*
X160299495Y-97994838D01*
X160394733Y-97899600D01*
X160489971Y-97851980D01*
X160680447Y-97851980D01*
X160775685Y-97899600D01*
X160870923Y-97994838D01*
X160918542Y-98185314D01*
X160918542Y-98518647D01*
X160870923Y-98709123D01*
X160775685Y-98804361D01*
X160680447Y-98851980D01*
X160489971Y-98851980D01*
X161775685Y-97851980D02*
X161585209Y-97851980D01*
X161489971Y-97899600D01*
X161442352Y-97947219D01*
X161347114Y-98090076D01*
X161299495Y-98280552D01*
X161299495Y-98661504D01*
X161347114Y-98756742D01*
X161394733Y-98804361D01*
X161489971Y-98851980D01*
X161680447Y-98851980D01*
X161775685Y-98804361D01*
X161823304Y-98756742D01*
X161870923Y-98661504D01*
X161870923Y-98423409D01*
X161823304Y-98328171D01*
X161775685Y-98280552D01*
X161680447Y-98232933D01*
X161489971Y-98232933D01*
X161394733Y-98280552D01*
X161347114Y-98328171D01*
X161299495Y-98423409D01*
%TO.C,R7*%
X129525733Y-95753180D02*
X129192400Y-95276990D01*
X128954304Y-95753180D02*
X128954304Y-94753180D01*
X129335257Y-94753180D01*
X129430495Y-94800800D01*
X129478114Y-94848419D01*
X129525733Y-94943657D01*
X129525733Y-95086514D01*
X129478114Y-95181752D01*
X129430495Y-95229371D01*
X129335257Y-95276990D01*
X128954304Y-95276990D01*
X129859066Y-94753180D02*
X130525733Y-94753180D01*
X130097161Y-95753180D01*
%TO.C,C2*%
X84059733Y-78436742D02*
X84012114Y-78484361D01*
X83869257Y-78531980D01*
X83774019Y-78531980D01*
X83631161Y-78484361D01*
X83535923Y-78389123D01*
X83488304Y-78293885D01*
X83440685Y-78103409D01*
X83440685Y-77960552D01*
X83488304Y-77770076D01*
X83535923Y-77674838D01*
X83631161Y-77579600D01*
X83774019Y-77531980D01*
X83869257Y-77531980D01*
X84012114Y-77579600D01*
X84059733Y-77627219D01*
X84440685Y-77627219D02*
X84488304Y-77579600D01*
X84583542Y-77531980D01*
X84821638Y-77531980D01*
X84916876Y-77579600D01*
X84964495Y-77627219D01*
X85012114Y-77722457D01*
X85012114Y-77817695D01*
X84964495Y-77960552D01*
X84393066Y-78531980D01*
X85012114Y-78531980D01*
%TO.C,C3*%
X124537742Y-97448666D02*
X124585361Y-97496285D01*
X124632980Y-97639142D01*
X124632980Y-97734380D01*
X124585361Y-97877238D01*
X124490123Y-97972476D01*
X124394885Y-98020095D01*
X124204409Y-98067714D01*
X124061552Y-98067714D01*
X123871076Y-98020095D01*
X123775838Y-97972476D01*
X123680600Y-97877238D01*
X123632980Y-97734380D01*
X123632980Y-97639142D01*
X123680600Y-97496285D01*
X123728219Y-97448666D01*
X123632980Y-97115333D02*
X123632980Y-96496285D01*
X124013933Y-96829619D01*
X124013933Y-96686761D01*
X124061552Y-96591523D01*
X124109171Y-96543904D01*
X124204409Y-96496285D01*
X124442504Y-96496285D01*
X124537742Y-96543904D01*
X124585361Y-96591523D01*
X124632980Y-96686761D01*
X124632980Y-96972476D01*
X124585361Y-97067714D01*
X124537742Y-97115333D01*
%TO.C,R2*%
X200671133Y-90825580D02*
X200337800Y-90349390D01*
X200099704Y-90825580D02*
X200099704Y-89825580D01*
X200480657Y-89825580D01*
X200575895Y-89873200D01*
X200623514Y-89920819D01*
X200671133Y-90016057D01*
X200671133Y-90158914D01*
X200623514Y-90254152D01*
X200575895Y-90301771D01*
X200480657Y-90349390D01*
X200099704Y-90349390D01*
X201052085Y-89920819D02*
X201099704Y-89873200D01*
X201194942Y-89825580D01*
X201433038Y-89825580D01*
X201528276Y-89873200D01*
X201575895Y-89920819D01*
X201623514Y-90016057D01*
X201623514Y-90111295D01*
X201575895Y-90254152D01*
X201004466Y-90825580D01*
X201623514Y-90825580D01*
%TO.C,U6*%
X134442795Y-79643275D02*
X134442795Y-80452799D01*
X134490414Y-80548037D01*
X134538033Y-80595656D01*
X134633271Y-80643275D01*
X134823747Y-80643275D01*
X134918985Y-80595656D01*
X134966604Y-80548037D01*
X135014223Y-80452799D01*
X135014223Y-79643275D01*
X135918985Y-79643275D02*
X135728509Y-79643275D01*
X135633271Y-79690895D01*
X135585652Y-79738514D01*
X135490414Y-79881371D01*
X135442795Y-80071847D01*
X135442795Y-80452799D01*
X135490414Y-80548037D01*
X135538033Y-80595656D01*
X135633271Y-80643275D01*
X135823747Y-80643275D01*
X135918985Y-80595656D01*
X135966604Y-80548037D01*
X136014223Y-80452799D01*
X136014223Y-80214704D01*
X135966604Y-80119466D01*
X135918985Y-80071847D01*
X135823747Y-80024228D01*
X135633271Y-80024228D01*
X135538033Y-80071847D01*
X135490414Y-80119466D01*
X135442795Y-80214704D01*
%TO.C,U5*%
X77917550Y-79687924D02*
X77917550Y-80497448D01*
X77965169Y-80592686D01*
X78012788Y-80640305D01*
X78108026Y-80687924D01*
X78298502Y-80687924D01*
X78393740Y-80640305D01*
X78441359Y-80592686D01*
X78488978Y-80497448D01*
X78488978Y-79687924D01*
X79441359Y-79687924D02*
X78965169Y-79687924D01*
X78917550Y-80164115D01*
X78965169Y-80116496D01*
X79060407Y-80068877D01*
X79298502Y-80068877D01*
X79393740Y-80116496D01*
X79441359Y-80164115D01*
X79488978Y-80259353D01*
X79488978Y-80497448D01*
X79441359Y-80592686D01*
X79393740Y-80640305D01*
X79298502Y-80687924D01*
X79060407Y-80687924D01*
X78965169Y-80640305D01*
X78917550Y-80592686D01*
%TO.C,R4*%
X82180133Y-100223580D02*
X81846800Y-99747390D01*
X81608704Y-100223580D02*
X81608704Y-99223580D01*
X81989657Y-99223580D01*
X82084895Y-99271200D01*
X82132514Y-99318819D01*
X82180133Y-99414057D01*
X82180133Y-99556914D01*
X82132514Y-99652152D01*
X82084895Y-99699771D01*
X81989657Y-99747390D01*
X81608704Y-99747390D01*
X83037276Y-99556914D02*
X83037276Y-100223580D01*
X82799180Y-99175961D02*
X82561085Y-99890247D01*
X83180133Y-99890247D01*
%TO.C,R14*%
X180918380Y-97949257D02*
X180442190Y-98282590D01*
X180918380Y-98520685D02*
X179918380Y-98520685D01*
X179918380Y-98139733D01*
X179966000Y-98044495D01*
X180013619Y-97996876D01*
X180108857Y-97949257D01*
X180251714Y-97949257D01*
X180346952Y-97996876D01*
X180394571Y-98044495D01*
X180442190Y-98139733D01*
X180442190Y-98520685D01*
X180918380Y-96996876D02*
X180918380Y-97568304D01*
X180918380Y-97282590D02*
X179918380Y-97282590D01*
X180061238Y-97377828D01*
X180156476Y-97473066D01*
X180204095Y-97568304D01*
X180251714Y-96139733D02*
X180918380Y-96139733D01*
X179870761Y-96377828D02*
X180585047Y-96615923D01*
X180585047Y-95996876D01*
%TO.C,C1*%
X79173342Y-97601066D02*
X79220961Y-97648685D01*
X79268580Y-97791542D01*
X79268580Y-97886780D01*
X79220961Y-98029638D01*
X79125723Y-98124876D01*
X79030485Y-98172495D01*
X78840009Y-98220114D01*
X78697152Y-98220114D01*
X78506676Y-98172495D01*
X78411438Y-98124876D01*
X78316200Y-98029638D01*
X78268580Y-97886780D01*
X78268580Y-97791542D01*
X78316200Y-97648685D01*
X78363819Y-97601066D01*
X79268580Y-96648685D02*
X79268580Y-97220114D01*
X79268580Y-96934400D02*
X78268580Y-96934400D01*
X78411438Y-97029638D01*
X78506676Y-97124876D01*
X78554295Y-97220114D01*
%TO.C,C5*%
X169571942Y-97448666D02*
X169619561Y-97496285D01*
X169667180Y-97639142D01*
X169667180Y-97734380D01*
X169619561Y-97877238D01*
X169524323Y-97972476D01*
X169429085Y-98020095D01*
X169238609Y-98067714D01*
X169095752Y-98067714D01*
X168905276Y-98020095D01*
X168810038Y-97972476D01*
X168714800Y-97877238D01*
X168667180Y-97734380D01*
X168667180Y-97639142D01*
X168714800Y-97496285D01*
X168762419Y-97448666D01*
X168667180Y-96543904D02*
X168667180Y-97020095D01*
X169143371Y-97067714D01*
X169095752Y-97020095D01*
X169048133Y-96924857D01*
X169048133Y-96686761D01*
X169095752Y-96591523D01*
X169143371Y-96543904D01*
X169238609Y-96496285D01*
X169476704Y-96496285D01*
X169571942Y-96543904D01*
X169619561Y-96591523D01*
X169667180Y-96686761D01*
X169667180Y-96924857D01*
X169619561Y-97020095D01*
X169571942Y-97067714D01*
%TO.C,U2*%
X66615050Y-79687924D02*
X66615050Y-80497448D01*
X66662669Y-80592686D01*
X66710288Y-80640305D01*
X66805526Y-80687924D01*
X66996002Y-80687924D01*
X67091240Y-80640305D01*
X67138859Y-80592686D01*
X67186478Y-80497448D01*
X67186478Y-79687924D01*
X67615050Y-79783163D02*
X67662669Y-79735544D01*
X67757907Y-79687924D01*
X67996002Y-79687924D01*
X68091240Y-79735544D01*
X68138859Y-79783163D01*
X68186478Y-79878401D01*
X68186478Y-79973639D01*
X68138859Y-80116496D01*
X67567431Y-80687924D01*
X68186478Y-80687924D01*
%TO.C,R13*%
X176115742Y-100223580D02*
X175782409Y-99747390D01*
X175544314Y-100223580D02*
X175544314Y-99223580D01*
X175925266Y-99223580D01*
X176020504Y-99271200D01*
X176068123Y-99318819D01*
X176115742Y-99414057D01*
X176115742Y-99556914D01*
X176068123Y-99652152D01*
X176020504Y-99699771D01*
X175925266Y-99747390D01*
X175544314Y-99747390D01*
X177068123Y-100223580D02*
X176496695Y-100223580D01*
X176782409Y-100223580D02*
X176782409Y-99223580D01*
X176687171Y-99366438D01*
X176591933Y-99461676D01*
X176496695Y-99509295D01*
X177401457Y-99223580D02*
X178020504Y-99223580D01*
X177687171Y-99604533D01*
X177830028Y-99604533D01*
X177925266Y-99652152D01*
X177972885Y-99699771D01*
X178020504Y-99795009D01*
X178020504Y-100033104D01*
X177972885Y-100128342D01*
X177925266Y-100175961D01*
X177830028Y-100223580D01*
X177544314Y-100223580D01*
X177449076Y-100175961D01*
X177401457Y-100128342D01*
%TO.C,Q5*%
X184511961Y-100355619D02*
X184416723Y-100308000D01*
X184321485Y-100212761D01*
X184178628Y-100069904D01*
X184083390Y-100022285D01*
X183988152Y-100022285D01*
X184035771Y-100260380D02*
X183940533Y-100212761D01*
X183845295Y-100117523D01*
X183797676Y-99927047D01*
X183797676Y-99593714D01*
X183845295Y-99403238D01*
X183940533Y-99308000D01*
X184035771Y-99260380D01*
X184226247Y-99260380D01*
X184321485Y-99308000D01*
X184416723Y-99403238D01*
X184464342Y-99593714D01*
X184464342Y-99927047D01*
X184416723Y-100117523D01*
X184321485Y-100212761D01*
X184226247Y-100260380D01*
X184035771Y-100260380D01*
X185369104Y-99260380D02*
X184892914Y-99260380D01*
X184845295Y-99736571D01*
X184892914Y-99688952D01*
X184988152Y-99641333D01*
X185226247Y-99641333D01*
X185321485Y-99688952D01*
X185369104Y-99736571D01*
X185416723Y-99831809D01*
X185416723Y-100069904D01*
X185369104Y-100165142D01*
X185321485Y-100212761D01*
X185226247Y-100260380D01*
X184988152Y-100260380D01*
X184892914Y-100212761D01*
X184845295Y-100165142D01*
%TO.C,R12*%
X172153342Y-100121980D02*
X171820009Y-99645790D01*
X171581914Y-100121980D02*
X171581914Y-99121980D01*
X171962866Y-99121980D01*
X172058104Y-99169600D01*
X172105723Y-99217219D01*
X172153342Y-99312457D01*
X172153342Y-99455314D01*
X172105723Y-99550552D01*
X172058104Y-99598171D01*
X171962866Y-99645790D01*
X171581914Y-99645790D01*
X173105723Y-100121980D02*
X172534295Y-100121980D01*
X172820009Y-100121980D02*
X172820009Y-99121980D01*
X172724771Y-99264838D01*
X172629533Y-99360076D01*
X172534295Y-99407695D01*
X173486676Y-99217219D02*
X173534295Y-99169600D01*
X173629533Y-99121980D01*
X173867628Y-99121980D01*
X173962866Y-99169600D01*
X174010485Y-99217219D01*
X174058104Y-99312457D01*
X174058104Y-99407695D01*
X174010485Y-99550552D01*
X173439057Y-100121980D01*
X174058104Y-100121980D01*
%TO.C,U15*%
X167875104Y-79639680D02*
X167875104Y-80449204D01*
X167922723Y-80544442D01*
X167970342Y-80592061D01*
X168065580Y-80639680D01*
X168256057Y-80639680D01*
X168351295Y-80592061D01*
X168398914Y-80544442D01*
X168446533Y-80449204D01*
X168446533Y-79639680D01*
X169446533Y-80639680D02*
X168875104Y-80639680D01*
X169160819Y-80639680D02*
X169160819Y-79639680D01*
X169065580Y-79782538D01*
X168970342Y-79877776D01*
X168875104Y-79925395D01*
X170351295Y-79639680D02*
X169875104Y-79639680D01*
X169827485Y-80115871D01*
X169875104Y-80068252D01*
X169970342Y-80020633D01*
X170208438Y-80020633D01*
X170303676Y-80068252D01*
X170351295Y-80115871D01*
X170398914Y-80211109D01*
X170398914Y-80449204D01*
X170351295Y-80544442D01*
X170303676Y-80592061D01*
X170208438Y-80639680D01*
X169970342Y-80639680D01*
X169875104Y-80592061D01*
X169827485Y-80544442D01*
%TO.C,R10*%
X135706380Y-97978252D02*
X135230190Y-98311585D01*
X135706380Y-98549680D02*
X134706380Y-98549680D01*
X134706380Y-98168728D01*
X134754000Y-98073490D01*
X134801619Y-98025871D01*
X134896857Y-97978252D01*
X135039714Y-97978252D01*
X135134952Y-98025871D01*
X135182571Y-98073490D01*
X135230190Y-98168728D01*
X135230190Y-98549680D01*
X135706380Y-97025871D02*
X135706380Y-97597299D01*
X135706380Y-97311585D02*
X134706380Y-97311585D01*
X134849238Y-97406823D01*
X134944476Y-97502061D01*
X134992095Y-97597299D01*
X134706380Y-96406823D02*
X134706380Y-96311585D01*
X134754000Y-96216347D01*
X134801619Y-96168728D01*
X134896857Y-96121109D01*
X135087333Y-96073490D01*
X135325428Y-96073490D01*
X135515904Y-96121109D01*
X135611142Y-96168728D01*
X135658761Y-96216347D01*
X135706380Y-96311585D01*
X135706380Y-96406823D01*
X135658761Y-96502061D01*
X135611142Y-96549680D01*
X135515904Y-96597299D01*
X135325428Y-96644918D01*
X135087333Y-96644918D01*
X134896857Y-96597299D01*
X134801619Y-96549680D01*
X134754000Y-96502061D01*
X134706380Y-96406823D01*
%TO.C,U8*%
X145745795Y-79643275D02*
X145745795Y-80452799D01*
X145793414Y-80548037D01*
X145841033Y-80595656D01*
X145936271Y-80643275D01*
X146126747Y-80643275D01*
X146221985Y-80595656D01*
X146269604Y-80548037D01*
X146317223Y-80452799D01*
X146317223Y-79643275D01*
X146936271Y-80071847D02*
X146841033Y-80024228D01*
X146793414Y-79976609D01*
X146745795Y-79881371D01*
X146745795Y-79833752D01*
X146793414Y-79738514D01*
X146841033Y-79690895D01*
X146936271Y-79643275D01*
X147126747Y-79643275D01*
X147221985Y-79690895D01*
X147269604Y-79738514D01*
X147317223Y-79833752D01*
X147317223Y-79881371D01*
X147269604Y-79976609D01*
X147221985Y-80024228D01*
X147126747Y-80071847D01*
X146936271Y-80071847D01*
X146841033Y-80119466D01*
X146793414Y-80167085D01*
X146745795Y-80262323D01*
X146745795Y-80452799D01*
X146793414Y-80548037D01*
X146841033Y-80595656D01*
X146936271Y-80643275D01*
X147126747Y-80643275D01*
X147221985Y-80595656D01*
X147269604Y-80548037D01*
X147317223Y-80452799D01*
X147317223Y-80262323D01*
X147269604Y-80167085D01*
X147221985Y-80119466D01*
X147126747Y-80071847D01*
%TO.C,R1*%
X200645733Y-86786980D02*
X200312400Y-86310790D01*
X200074304Y-86786980D02*
X200074304Y-85786980D01*
X200455257Y-85786980D01*
X200550495Y-85834600D01*
X200598114Y-85882219D01*
X200645733Y-85977457D01*
X200645733Y-86120314D01*
X200598114Y-86215552D01*
X200550495Y-86263171D01*
X200455257Y-86310790D01*
X200074304Y-86310790D01*
X201598114Y-86786980D02*
X201026685Y-86786980D01*
X201312400Y-86786980D02*
X201312400Y-85786980D01*
X201217161Y-85929838D01*
X201121923Y-86025076D01*
X201026685Y-86072695D01*
%TO.C,Q4*%
X115652561Y-98769419D02*
X115557323Y-98721800D01*
X115462085Y-98626561D01*
X115319228Y-98483704D01*
X115223990Y-98436085D01*
X115128752Y-98436085D01*
X115176371Y-98674180D02*
X115081133Y-98626561D01*
X114985895Y-98531323D01*
X114938276Y-98340847D01*
X114938276Y-98007514D01*
X114985895Y-97817038D01*
X115081133Y-97721800D01*
X115176371Y-97674180D01*
X115366847Y-97674180D01*
X115462085Y-97721800D01*
X115557323Y-97817038D01*
X115604942Y-98007514D01*
X115604942Y-98340847D01*
X115557323Y-98531323D01*
X115462085Y-98626561D01*
X115366847Y-98674180D01*
X115176371Y-98674180D01*
X116462085Y-98007514D02*
X116462085Y-98674180D01*
X116223990Y-97626561D02*
X115985895Y-98340847D01*
X116604942Y-98340847D01*
%TO.C,U10*%
X122663104Y-79668675D02*
X122663104Y-80478199D01*
X122710723Y-80573437D01*
X122758342Y-80621056D01*
X122853580Y-80668675D01*
X123044057Y-80668675D01*
X123139295Y-80621056D01*
X123186914Y-80573437D01*
X123234533Y-80478199D01*
X123234533Y-79668675D01*
X124234533Y-80668675D02*
X123663104Y-80668675D01*
X123948819Y-80668675D02*
X123948819Y-79668675D01*
X123853580Y-79811533D01*
X123758342Y-79906771D01*
X123663104Y-79954390D01*
X124853580Y-79668675D02*
X124948819Y-79668675D01*
X125044057Y-79716295D01*
X125091676Y-79763914D01*
X125139295Y-79859152D01*
X125186914Y-80049628D01*
X125186914Y-80287723D01*
X125139295Y-80478199D01*
X125091676Y-80573437D01*
X125044057Y-80621056D01*
X124948819Y-80668675D01*
X124853580Y-80668675D01*
X124758342Y-80621056D01*
X124710723Y-80573437D01*
X124663104Y-80478199D01*
X124615485Y-80287723D01*
X124615485Y-80049628D01*
X124663104Y-79859152D01*
X124710723Y-79763914D01*
X124758342Y-79716295D01*
X124853580Y-79668675D01*
%TO.C,R9*%
X131405333Y-100198180D02*
X131072000Y-99721990D01*
X130833904Y-100198180D02*
X130833904Y-99198180D01*
X131214857Y-99198180D01*
X131310095Y-99245800D01*
X131357714Y-99293419D01*
X131405333Y-99388657D01*
X131405333Y-99531514D01*
X131357714Y-99626752D01*
X131310095Y-99674371D01*
X131214857Y-99721990D01*
X130833904Y-99721990D01*
X131881523Y-100198180D02*
X132072000Y-100198180D01*
X132167238Y-100150561D01*
X132214857Y-100102942D01*
X132310095Y-99960085D01*
X132357714Y-99769609D01*
X132357714Y-99388657D01*
X132310095Y-99293419D01*
X132262476Y-99245800D01*
X132167238Y-99198180D01*
X131976761Y-99198180D01*
X131881523Y-99245800D01*
X131833904Y-99293419D01*
X131786285Y-99388657D01*
X131786285Y-99626752D01*
X131833904Y-99721990D01*
X131881523Y-99769609D01*
X131976761Y-99817228D01*
X132167238Y-99817228D01*
X132262476Y-99769609D01*
X132310095Y-99721990D01*
X132357714Y-99626752D01*
%TO.C,Q3*%
X139299961Y-100384614D02*
X139204723Y-100336995D01*
X139109485Y-100241756D01*
X138966628Y-100098899D01*
X138871390Y-100051280D01*
X138776152Y-100051280D01*
X138823771Y-100289375D02*
X138728533Y-100241756D01*
X138633295Y-100146518D01*
X138585676Y-99956042D01*
X138585676Y-99622709D01*
X138633295Y-99432233D01*
X138728533Y-99336995D01*
X138823771Y-99289375D01*
X139014247Y-99289375D01*
X139109485Y-99336995D01*
X139204723Y-99432233D01*
X139252342Y-99622709D01*
X139252342Y-99956042D01*
X139204723Y-100146518D01*
X139109485Y-100241756D01*
X139014247Y-100289375D01*
X138823771Y-100289375D01*
X139585676Y-99289375D02*
X140204723Y-99289375D01*
X139871390Y-99670328D01*
X140014247Y-99670328D01*
X140109485Y-99717947D01*
X140157104Y-99765566D01*
X140204723Y-99860804D01*
X140204723Y-100098899D01*
X140157104Y-100194137D01*
X140109485Y-100241756D01*
X140014247Y-100289375D01*
X139728533Y-100289375D01*
X139633295Y-100241756D01*
X139585676Y-100194137D01*
%TO.C,U7*%
X111836795Y-79668675D02*
X111836795Y-80478199D01*
X111884414Y-80573437D01*
X111932033Y-80621056D01*
X112027271Y-80668675D01*
X112217747Y-80668675D01*
X112312985Y-80621056D01*
X112360604Y-80573437D01*
X112408223Y-80478199D01*
X112408223Y-79668675D01*
X112789176Y-79668675D02*
X113455842Y-79668675D01*
X113027271Y-80668675D01*
%TO.C,C6*%
X174432933Y-77954142D02*
X174385314Y-78001761D01*
X174242457Y-78049380D01*
X174147219Y-78049380D01*
X174004361Y-78001761D01*
X173909123Y-77906523D01*
X173861504Y-77811285D01*
X173813885Y-77620809D01*
X173813885Y-77477952D01*
X173861504Y-77287476D01*
X173909123Y-77192238D01*
X174004361Y-77097000D01*
X174147219Y-77049380D01*
X174242457Y-77049380D01*
X174385314Y-77097000D01*
X174432933Y-77144619D01*
X175290076Y-77049380D02*
X175099600Y-77049380D01*
X175004361Y-77097000D01*
X174956742Y-77144619D01*
X174861504Y-77287476D01*
X174813885Y-77477952D01*
X174813885Y-77858904D01*
X174861504Y-77954142D01*
X174909123Y-78001761D01*
X175004361Y-78049380D01*
X175194838Y-78049380D01*
X175290076Y-78001761D01*
X175337695Y-77954142D01*
X175385314Y-77858904D01*
X175385314Y-77620809D01*
X175337695Y-77525571D01*
X175290076Y-77477952D01*
X175194838Y-77430333D01*
X175004361Y-77430333D01*
X174909123Y-77477952D01*
X174861504Y-77525571D01*
X174813885Y-77620809D01*
%TO.C,R5*%
X86193333Y-100223580D02*
X85860000Y-99747390D01*
X85621904Y-100223580D02*
X85621904Y-99223580D01*
X86002857Y-99223580D01*
X86098095Y-99271200D01*
X86145714Y-99318819D01*
X86193333Y-99414057D01*
X86193333Y-99556914D01*
X86145714Y-99652152D01*
X86098095Y-99699771D01*
X86002857Y-99747390D01*
X85621904Y-99747390D01*
X87098095Y-99223580D02*
X86621904Y-99223580D01*
X86574285Y-99699771D01*
X86621904Y-99652152D01*
X86717142Y-99604533D01*
X86955238Y-99604533D01*
X87050476Y-99652152D01*
X87098095Y-99699771D01*
X87145714Y-99795009D01*
X87145714Y-100033104D01*
X87098095Y-100128342D01*
X87050476Y-100175961D01*
X86955238Y-100223580D01*
X86717142Y-100223580D01*
X86621904Y-100175961D01*
X86574285Y-100128342D01*
%TO.C,Q2*%
X70491361Y-98794819D02*
X70396123Y-98747200D01*
X70300885Y-98651961D01*
X70158028Y-98509104D01*
X70062790Y-98461485D01*
X69967552Y-98461485D01*
X70015171Y-98699580D02*
X69919933Y-98651961D01*
X69824695Y-98556723D01*
X69777076Y-98366247D01*
X69777076Y-98032914D01*
X69824695Y-97842438D01*
X69919933Y-97747200D01*
X70015171Y-97699580D01*
X70205647Y-97699580D01*
X70300885Y-97747200D01*
X70396123Y-97842438D01*
X70443742Y-98032914D01*
X70443742Y-98366247D01*
X70396123Y-98556723D01*
X70300885Y-98651961D01*
X70205647Y-98699580D01*
X70015171Y-98699580D01*
X70824695Y-97794819D02*
X70872314Y-97747200D01*
X70967552Y-97699580D01*
X71205647Y-97699580D01*
X71300885Y-97747200D01*
X71348504Y-97794819D01*
X71396123Y-97890057D01*
X71396123Y-97985295D01*
X71348504Y-98128152D01*
X70777076Y-98699580D01*
X71396123Y-98699580D01*
%TO.C,Q1*%
X94078216Y-100403863D02*
X93982978Y-100356244D01*
X93887740Y-100261005D01*
X93744883Y-100118148D01*
X93649645Y-100070529D01*
X93554407Y-100070529D01*
X93602026Y-100308624D02*
X93506788Y-100261005D01*
X93411550Y-100165767D01*
X93363931Y-99975291D01*
X93363931Y-99641958D01*
X93411550Y-99451482D01*
X93506788Y-99356244D01*
X93602026Y-99308624D01*
X93792502Y-99308624D01*
X93887740Y-99356244D01*
X93982978Y-99451482D01*
X94030597Y-99641958D01*
X94030597Y-99975291D01*
X93982978Y-100165767D01*
X93887740Y-100261005D01*
X93792502Y-100308624D01*
X93602026Y-100308624D01*
X94982978Y-100308624D02*
X94411550Y-100308624D01*
X94697264Y-100308624D02*
X94697264Y-99308624D01*
X94602026Y-99451482D01*
X94506788Y-99546720D01*
X94411550Y-99594339D01*
%TO.C,R11*%
X174159942Y-95702380D02*
X173826609Y-95226190D01*
X173588514Y-95702380D02*
X173588514Y-94702380D01*
X173969466Y-94702380D01*
X174064704Y-94750000D01*
X174112323Y-94797619D01*
X174159942Y-94892857D01*
X174159942Y-95035714D01*
X174112323Y-95130952D01*
X174064704Y-95178571D01*
X173969466Y-95226190D01*
X173588514Y-95226190D01*
X175112323Y-95702380D02*
X174540895Y-95702380D01*
X174826609Y-95702380D02*
X174826609Y-94702380D01*
X174731371Y-94845238D01*
X174636133Y-94940476D01*
X174540895Y-94988095D01*
X176064704Y-95702380D02*
X175493276Y-95702380D01*
X175778990Y-95702380D02*
X175778990Y-94702380D01*
X175683752Y-94845238D01*
X175588514Y-94940476D01*
X175493276Y-94988095D01*
D11*
%TO.C,U13*%
X196829700Y-94391900D02*
X196829700Y-81171900D01*
X196829700Y-81171900D02*
X186609700Y-81171900D01*
X186609700Y-81171900D02*
X186609700Y-94391900D01*
X186249700Y-80811900D02*
X187449700Y-80811900D01*
X186609700Y-94391900D02*
X196829700Y-94391900D01*
X186249700Y-82011900D02*
X186249700Y-80811900D01*
%TO.C,R6*%
X89117255Y-97127580D02*
X89117255Y-97581708D01*
X87647255Y-97127580D02*
X87647255Y-97581708D01*
%TO.C,U12*%
X152340700Y-80837300D02*
X153540700Y-80837300D01*
X152700700Y-81197300D02*
X152700700Y-94417300D01*
X162920700Y-94417300D02*
X162920700Y-81197300D01*
X152700700Y-94417300D02*
X162920700Y-94417300D01*
X152340700Y-82037300D02*
X152340700Y-80837300D01*
X162920700Y-81197300D02*
X152700700Y-81197300D01*
%TO.C,U1*%
X95092955Y-81220144D02*
X84872955Y-81220144D01*
X95092955Y-94440144D02*
X95092955Y-81220144D01*
X84512955Y-82060144D02*
X84512955Y-80860144D01*
X84512955Y-80860144D02*
X85712955Y-80860144D01*
X84872955Y-81220144D02*
X84872955Y-94440144D01*
X84872955Y-94440144D02*
X95092955Y-94440144D01*
%TO.C,R8*%
X126849200Y-97108331D02*
X126849200Y-97562459D01*
X128319200Y-97108331D02*
X128319200Y-97562459D01*
%TO.C,C4*%
X129725052Y-78667995D02*
X129202548Y-78667995D01*
X129725052Y-80137995D02*
X129202548Y-80137995D01*
%TO.C,U3*%
X96175955Y-81220144D02*
X96175955Y-94440144D01*
X106395955Y-81220144D02*
X96175955Y-81220144D01*
X95815955Y-82060144D02*
X95815955Y-80860144D01*
X96175955Y-94440144D02*
X106395955Y-94440144D01*
X95815955Y-80860144D02*
X97015955Y-80860144D01*
X106395955Y-94440144D02*
X106395955Y-81220144D01*
%TO.C,R3*%
X83608655Y-97581708D02*
X83608655Y-97127580D01*
X85078655Y-97581708D02*
X85078655Y-97127580D01*
%TO.C,U11*%
X185526700Y-81171900D02*
X175306700Y-81171900D01*
X175306700Y-94391900D02*
X185526700Y-94391900D01*
X174946700Y-82011900D02*
X174946700Y-80811900D01*
X174946700Y-80811900D02*
X176146700Y-80811900D01*
X185526700Y-94391900D02*
X185526700Y-81171900D01*
X175306700Y-81171900D02*
X175306700Y-94391900D01*
%TO.C,J2*%
X203938000Y-92607600D02*
X202723000Y-92607600D01*
X202338000Y-84607600D02*
X203938000Y-84607600D01*
X203938000Y-92887600D02*
X202338000Y-92887600D01*
X202338000Y-93807600D02*
X210158000Y-93807600D01*
X210158000Y-93807600D02*
X210158000Y-83687600D01*
X207898000Y-92047600D02*
X210158000Y-92047600D01*
X206298000Y-93047600D02*
X207898000Y-93047600D01*
X207898000Y-92047600D02*
X206298000Y-92047600D01*
X206298000Y-84447600D02*
X207898000Y-84447600D01*
X210158000Y-83687600D02*
X202338000Y-83687600D01*
X205798000Y-86247600D02*
X210158000Y-86247600D01*
X207898000Y-93047600D02*
X207898000Y-92047600D01*
X207898000Y-92547600D02*
X210158000Y-92547600D01*
X203938000Y-92607600D02*
X203938000Y-92887600D01*
X203938000Y-83687600D02*
X203938000Y-84607600D01*
X203938000Y-93807600D02*
X203938000Y-92887600D01*
X206298000Y-92047600D02*
X206298000Y-93047600D01*
X207898000Y-84447600D02*
X207898000Y-85447600D01*
X207898000Y-85447600D02*
X206298000Y-85447600D01*
X202338000Y-83687600D02*
X202338000Y-84607600D01*
X203938000Y-84607600D02*
X203938000Y-84887600D01*
X205798000Y-91247600D02*
X205798000Y-86247600D01*
X202338000Y-92887600D02*
X202338000Y-93807600D01*
X210158000Y-91247600D02*
X205798000Y-91247600D01*
X206298000Y-85447600D02*
X206298000Y-84447600D01*
%TO.C,Q6*%
X164033200Y-98815600D02*
X164683200Y-98815600D01*
X164033200Y-95695600D02*
X164683200Y-95695600D01*
X164033200Y-98815600D02*
X163383200Y-98815600D01*
X164033200Y-95695600D02*
X162358200Y-95695600D01*
%TO.C,J1*%
X56386600Y-93756800D02*
X56386600Y-92836800D01*
X57986600Y-83636800D02*
X50166600Y-83636800D01*
X56386600Y-84836800D02*
X57601600Y-84836800D01*
X52426600Y-91996800D02*
X54026600Y-91996800D01*
X50166600Y-86196800D02*
X54526600Y-86196800D01*
X56386600Y-84556800D02*
X57986600Y-84556800D01*
X54526600Y-86196800D02*
X54526600Y-91196800D01*
X54026600Y-84396800D02*
X52426600Y-84396800D01*
X56386600Y-92836800D02*
X56386600Y-92556800D01*
X57986600Y-93756800D02*
X57986600Y-92836800D01*
X50166600Y-93756800D02*
X57986600Y-93756800D01*
X56386600Y-83636800D02*
X56386600Y-84556800D01*
X52426600Y-84396800D02*
X52426600Y-85396800D01*
X54526600Y-91196800D02*
X50166600Y-91196800D01*
X57986600Y-92836800D02*
X56386600Y-92836800D01*
X50166600Y-83636800D02*
X50166600Y-93756800D01*
X54026600Y-92996800D02*
X52426600Y-92996800D01*
X54026600Y-91996800D02*
X54026600Y-92996800D01*
X57986600Y-84556800D02*
X57986600Y-83636800D01*
X52426600Y-84896800D02*
X50166600Y-84896800D01*
X52426600Y-85396800D02*
X54026600Y-85396800D01*
X52426600Y-85396800D02*
X50166600Y-85396800D01*
X54026600Y-85396800D02*
X54026600Y-84396800D01*
X56386600Y-84836800D02*
X56386600Y-84556800D01*
X52426600Y-92996800D02*
X52426600Y-91996800D01*
%TO.C,R7*%
X128830400Y-97562459D02*
X128830400Y-97108331D01*
X130300400Y-97562459D02*
X130300400Y-97108331D01*
%TO.C,C2*%
X84503307Y-78687244D02*
X83980803Y-78687244D01*
X84503307Y-80157244D02*
X83980803Y-80157244D01*
%TO.C,C3*%
X126312600Y-97063943D02*
X126312600Y-97586447D01*
X124842600Y-97063943D02*
X124842600Y-97586447D01*
%TO.C,R2*%
X198299400Y-90069936D02*
X198299400Y-90524064D01*
X199769400Y-90069936D02*
X199769400Y-90524064D01*
%TO.C,U6*%
X140314700Y-81200895D02*
X130094700Y-81200895D01*
X129734700Y-80840895D02*
X130934700Y-80840895D01*
X129734700Y-82040895D02*
X129734700Y-80840895D01*
X140314700Y-94420895D02*
X140314700Y-81200895D01*
X130094700Y-94420895D02*
X140314700Y-94420895D01*
X130094700Y-81200895D02*
X130094700Y-94420895D01*
%TO.C,U5*%
X83789455Y-94465544D02*
X83789455Y-81245544D01*
X73569455Y-94465544D02*
X83789455Y-94465544D01*
X83789455Y-81245544D02*
X73569455Y-81245544D01*
X73209455Y-82085544D02*
X73209455Y-80885544D01*
X73569455Y-81245544D02*
X73569455Y-94465544D01*
X73209455Y-80885544D02*
X74409455Y-80885544D01*
%TO.C,R4*%
X81627455Y-97127580D02*
X81627455Y-97581708D01*
X83097455Y-97127580D02*
X83097455Y-97581708D01*
%TO.C,R14*%
X179551000Y-97079336D02*
X179551000Y-97533464D01*
X178081000Y-97079336D02*
X178081000Y-97533464D01*
%TO.C,C1*%
X81090855Y-97083192D02*
X81090855Y-97605696D01*
X79620855Y-97083192D02*
X79620855Y-97605696D01*
%TO.C,C5*%
X171524600Y-97034948D02*
X171524600Y-97557452D01*
X170054600Y-97034948D02*
X170054600Y-97557452D01*
%TO.C,U2*%
X61906955Y-80885544D02*
X63106955Y-80885544D01*
X72486955Y-94465544D02*
X72486955Y-81245544D01*
X72486955Y-81245544D02*
X62266955Y-81245544D01*
X61906955Y-82085544D02*
X61906955Y-80885544D01*
X62266955Y-81245544D02*
X62266955Y-94465544D01*
X62266955Y-94465544D02*
X72486955Y-94465544D01*
%TO.C,R13*%
X177519000Y-97533464D02*
X177519000Y-97079336D01*
X176049000Y-97533464D02*
X176049000Y-97079336D01*
%TO.C,Q5*%
X184607200Y-95848000D02*
X185257200Y-95848000D01*
X184607200Y-95848000D02*
X183957200Y-95848000D01*
X184607200Y-98968000D02*
X183957200Y-98968000D01*
X184607200Y-98968000D02*
X186282200Y-98968000D01*
%TO.C,R12*%
X172061200Y-97079336D02*
X172061200Y-97533464D01*
X173531200Y-97079336D02*
X173531200Y-97533464D01*
%TO.C,U15*%
X163643200Y-82037300D02*
X163643200Y-80837300D01*
X164003200Y-81197300D02*
X164003200Y-94417300D01*
X163643200Y-80837300D02*
X164843200Y-80837300D01*
X174223200Y-94417300D02*
X174223200Y-81197300D01*
X174223200Y-81197300D02*
X164003200Y-81197300D01*
X164003200Y-94417300D02*
X174223200Y-94417300D01*
%TO.C,R10*%
X132869000Y-97108331D02*
X132869000Y-97562459D01*
X134339000Y-97108331D02*
X134339000Y-97562459D01*
%TO.C,U8*%
X141037700Y-82040895D02*
X141037700Y-80840895D01*
X141397700Y-81200895D02*
X141397700Y-94420895D01*
X141397700Y-94420895D02*
X151617700Y-94420895D01*
X151617700Y-81200895D02*
X141397700Y-81200895D01*
X151617700Y-94420895D02*
X151617700Y-81200895D01*
X141037700Y-80840895D02*
X142237700Y-80840895D01*
%TO.C,R1*%
X199769400Y-86536264D02*
X199769400Y-86082136D01*
X198299400Y-86536264D02*
X198299400Y-86082136D01*
%TO.C,Q4*%
X118821200Y-95724595D02*
X119471200Y-95724595D01*
X118821200Y-95724595D02*
X117146200Y-95724595D01*
X118821200Y-98844595D02*
X119471200Y-98844595D01*
X118821200Y-98844595D02*
X118171200Y-98844595D01*
%TO.C,U10*%
X118791200Y-81226295D02*
X118791200Y-94446295D01*
X118791200Y-94446295D02*
X129011200Y-94446295D01*
X118431200Y-80866295D02*
X119631200Y-80866295D01*
X129011200Y-81226295D02*
X118791200Y-81226295D01*
X129011200Y-94446295D02*
X129011200Y-81226295D01*
X118431200Y-82066295D02*
X118431200Y-80866295D01*
%TO.C,R9*%
X130837000Y-97562459D02*
X130837000Y-97108331D01*
X132307000Y-97562459D02*
X132307000Y-97108331D01*
%TO.C,Q3*%
X139395200Y-98996995D02*
X141070200Y-98996995D01*
X139395200Y-95876995D02*
X138745200Y-95876995D01*
X139395200Y-95876995D02*
X140045200Y-95876995D01*
X139395200Y-98996995D02*
X138745200Y-98996995D01*
%TO.C,U7*%
X107128700Y-82066295D02*
X107128700Y-80866295D01*
X117708700Y-94446295D02*
X117708700Y-81226295D01*
X117708700Y-81226295D02*
X107488700Y-81226295D01*
X107128700Y-80866295D02*
X108328700Y-80866295D01*
X107488700Y-94446295D02*
X117708700Y-94446295D01*
X107488700Y-81226295D02*
X107488700Y-94446295D01*
%TO.C,C6*%
X174937052Y-80109000D02*
X174414548Y-80109000D01*
X174937052Y-78639000D02*
X174414548Y-78639000D01*
%TO.C,R5*%
X85615255Y-97581708D02*
X85615255Y-97127580D01*
X87085255Y-97581708D02*
X87085255Y-97127580D01*
%TO.C,Q2*%
X73599455Y-98863844D02*
X72949455Y-98863844D01*
X73599455Y-95743844D02*
X74249455Y-95743844D01*
X73599455Y-98863844D02*
X74249455Y-98863844D01*
X73599455Y-95743844D02*
X71924455Y-95743844D01*
%TO.C,Q1*%
X94173455Y-95896244D02*
X93523455Y-95896244D01*
X94173455Y-95896244D02*
X94823455Y-95896244D01*
X94173455Y-99016244D02*
X93523455Y-99016244D01*
X94173455Y-99016244D02*
X95848455Y-99016244D01*
%TO.C,R11*%
X174042400Y-97533464D02*
X174042400Y-97079336D01*
X175512400Y-97533464D02*
X175512400Y-97079336D01*
%TD*%
M02*
