%TF.GenerationSoftware,KiCad,Pcbnew,(6.0.0)*%
%TF.CreationDate,2023-05-02T22:40:52+02:00*%
%TF.ProjectId,7SegmentDisplay,37536567-6d65-46e7-9444-6973706c6179,rev?*%
%TF.SameCoordinates,Original*%
%TF.FileFunction,Soldermask,Bot*%
%TF.FilePolarity,Negative*%
%FSLAX46Y46*%
G04 Gerber Fmt 4.6, Leading zero omitted, Abs format (unit mm)*
G04 Created by KiCad (PCBNEW (6.0.0)) date 2023-05-02 22:40:52*
%MOMM*%
%LPD*%
G01*
G04 APERTURE LIST*
G04 Aperture macros list*
%AMRoundRect*
0 Rectangle with rounded corners*
0 $1 Rounding radius*
0 $2 $3 $4 $5 $6 $7 $8 $9 X,Y pos of 4 corners*
0 Add a 4 corners polygon primitive as box body*
4,1,4,$2,$3,$4,$5,$6,$7,$8,$9,$2,$3,0*
0 Add four circle primitives for the rounded corners*
1,1,$1+$1,$2,$3*
1,1,$1+$1,$4,$5*
1,1,$1+$1,$6,$7*
1,1,$1+$1,$8,$9*
0 Add four rect primitives between the rounded corners*
20,1,$1+$1,$2,$3,$4,$5,0*
20,1,$1+$1,$4,$5,$6,$7,0*
20,1,$1+$1,$6,$7,$8,$9,0*
20,1,$1+$1,$8,$9,$2,$3,0*%
G04 Aperture macros list end*
%ADD10C,3.200000*%
%ADD11C,1.700000*%
%ADD12R,1.700000X1.700000*%
%ADD13RoundRect,0.250000X0.625000X-0.350000X0.625000X0.350000X-0.625000X0.350000X-0.625000X-0.350000X0*%
%ADD14O,1.750000X1.200000*%
%ADD15RoundRect,0.250000X-0.625000X0.350000X-0.625000X-0.350000X0.625000X-0.350000X0.625000X0.350000X0*%
%ADD16RoundRect,0.150000X-0.875000X-0.150000X0.875000X-0.150000X0.875000X0.150000X-0.875000X0.150000X0*%
G04 APERTURE END LIST*
D10*
%TO.C,H4*%
X53390800Y-97815400D03*
%TD*%
%TO.C,H3*%
X207035400Y-97840800D03*
%TD*%
%TO.C,H2*%
X207035400Y-79629000D03*
%TD*%
%TO.C,H1*%
X53314600Y-79502000D03*
%TD*%
D11*
%TO.C,U13*%
X195529700Y-82701900D03*
X195529700Y-85241900D03*
X195529700Y-87781900D03*
X195529700Y-90321900D03*
X195529700Y-92861900D03*
X187909700Y-92861900D03*
X187909700Y-90321900D03*
X187909700Y-87781900D03*
X187909700Y-85241900D03*
D12*
X187909700Y-82701900D03*
%TD*%
D11*
%TO.C,U12*%
X161620700Y-82727300D03*
X161620700Y-85267300D03*
X161620700Y-87807300D03*
X161620700Y-90347300D03*
X161620700Y-92887300D03*
X154000700Y-92887300D03*
X154000700Y-90347300D03*
X154000700Y-87807300D03*
X154000700Y-85267300D03*
D12*
X154000700Y-82727300D03*
%TD*%
%TO.C,U1*%
X86172955Y-82750144D03*
D11*
X86172955Y-85290144D03*
X86172955Y-87830144D03*
X86172955Y-90370144D03*
X86172955Y-92910144D03*
X93792955Y-92910144D03*
X93792955Y-90370144D03*
X93792955Y-87830144D03*
X93792955Y-85290144D03*
X93792955Y-82750144D03*
%TD*%
%TO.C,U3*%
X105095955Y-82750144D03*
X105095955Y-85290144D03*
X105095955Y-87830144D03*
X105095955Y-90370144D03*
X105095955Y-92910144D03*
X97475955Y-92910144D03*
X97475955Y-90370144D03*
X97475955Y-87830144D03*
X97475955Y-85290144D03*
D12*
X97475955Y-82750144D03*
%TD*%
D11*
%TO.C,U11*%
X184226700Y-82701900D03*
X184226700Y-85241900D03*
X184226700Y-87781900D03*
X184226700Y-90321900D03*
X184226700Y-92861900D03*
X176606700Y-92861900D03*
X176606700Y-90321900D03*
X176606700Y-87781900D03*
X176606700Y-85241900D03*
D12*
X176606700Y-82701900D03*
%TD*%
D13*
%TO.C,J2*%
X203798000Y-91747600D03*
D14*
X203798000Y-89747600D03*
X203798000Y-87747600D03*
X203798000Y-85747600D03*
%TD*%
D15*
%TO.C,J1*%
X56526600Y-85696800D03*
D14*
X56526600Y-87696800D03*
X56526600Y-89696800D03*
X56526600Y-91696800D03*
%TD*%
D12*
%TO.C,U6*%
X131394700Y-82730895D03*
D11*
X131394700Y-85270895D03*
X131394700Y-87810895D03*
X131394700Y-90350895D03*
X131394700Y-92890895D03*
X139014700Y-92890895D03*
X139014700Y-90350895D03*
X139014700Y-87810895D03*
X139014700Y-85270895D03*
X139014700Y-82730895D03*
%TD*%
D16*
%TO.C,U14*%
X179402000Y-93699600D03*
X179402000Y-92429600D03*
X179402000Y-91159600D03*
X179402000Y-89889600D03*
X179402000Y-88619600D03*
X179402000Y-87349600D03*
X179402000Y-86079600D03*
X179402000Y-84809600D03*
X179402000Y-83539600D03*
X179402000Y-82269600D03*
X179402000Y-80999600D03*
X179402000Y-79729600D03*
X170102000Y-79729600D03*
X170102000Y-80999600D03*
X170102000Y-82269600D03*
X170102000Y-83539600D03*
X170102000Y-84809600D03*
X170102000Y-86079600D03*
X170102000Y-87349600D03*
X170102000Y-88619600D03*
X170102000Y-89889600D03*
X170102000Y-91159600D03*
X170102000Y-92429600D03*
X170102000Y-93699600D03*
%TD*%
D11*
%TO.C,U5*%
X82489455Y-82775544D03*
X82489455Y-85315544D03*
X82489455Y-87855544D03*
X82489455Y-90395544D03*
X82489455Y-92935544D03*
X74869455Y-92935544D03*
X74869455Y-90395544D03*
X74869455Y-87855544D03*
X74869455Y-85315544D03*
D12*
X74869455Y-82775544D03*
%TD*%
D11*
%TO.C,U2*%
X71186955Y-82775544D03*
X71186955Y-85315544D03*
X71186955Y-87855544D03*
X71186955Y-90395544D03*
X71186955Y-92935544D03*
X63566955Y-92935544D03*
X63566955Y-90395544D03*
X63566955Y-87855544D03*
X63566955Y-85315544D03*
D12*
X63566955Y-82775544D03*
%TD*%
D11*
%TO.C,U15*%
X172923200Y-82727300D03*
X172923200Y-85267300D03*
X172923200Y-87807300D03*
X172923200Y-90347300D03*
X172923200Y-92887300D03*
X165303200Y-92887300D03*
X165303200Y-90347300D03*
X165303200Y-87807300D03*
X165303200Y-85267300D03*
D12*
X165303200Y-82727300D03*
%TD*%
%TO.C,U8*%
X142697700Y-82730895D03*
D11*
X142697700Y-85270895D03*
X142697700Y-87810895D03*
X142697700Y-90350895D03*
X142697700Y-92890895D03*
X150317700Y-92890895D03*
X150317700Y-90350895D03*
X150317700Y-87810895D03*
X150317700Y-85270895D03*
X150317700Y-82730895D03*
%TD*%
D12*
%TO.C,U10*%
X120091200Y-82756295D03*
D11*
X120091200Y-85296295D03*
X120091200Y-87836295D03*
X120091200Y-90376295D03*
X120091200Y-92916295D03*
X127711200Y-92916295D03*
X127711200Y-90376295D03*
X127711200Y-87836295D03*
X127711200Y-85296295D03*
X127711200Y-82756295D03*
%TD*%
D12*
%TO.C,U7*%
X108788700Y-82756295D03*
D11*
X108788700Y-85296295D03*
X108788700Y-87836295D03*
X108788700Y-90376295D03*
X108788700Y-92916295D03*
X116408700Y-92916295D03*
X116408700Y-90376295D03*
X116408700Y-87836295D03*
X116408700Y-85296295D03*
X116408700Y-82756295D03*
%TD*%
D16*
%TO.C,U4*%
X79668255Y-93747844D03*
X79668255Y-92477844D03*
X79668255Y-91207844D03*
X79668255Y-89937844D03*
X79668255Y-88667844D03*
X79668255Y-87397844D03*
X79668255Y-86127844D03*
X79668255Y-84857844D03*
X79668255Y-83587844D03*
X79668255Y-82317844D03*
X79668255Y-81047844D03*
X79668255Y-79777844D03*
X88968255Y-79777844D03*
X88968255Y-81047844D03*
X88968255Y-82317844D03*
X88968255Y-83587844D03*
X88968255Y-84857844D03*
X88968255Y-86127844D03*
X88968255Y-87397844D03*
X88968255Y-88667844D03*
X88968255Y-89937844D03*
X88968255Y-91207844D03*
X88968255Y-92477844D03*
X88968255Y-93747844D03*
%TD*%
%TO.C,U9*%
X124890000Y-93728595D03*
X124890000Y-92458595D03*
X124890000Y-91188595D03*
X124890000Y-89918595D03*
X124890000Y-88648595D03*
X124890000Y-87378595D03*
X124890000Y-86108595D03*
X124890000Y-84838595D03*
X124890000Y-83568595D03*
X124890000Y-82298595D03*
X124890000Y-81028595D03*
X124890000Y-79758595D03*
X134190000Y-79758595D03*
X134190000Y-81028595D03*
X134190000Y-82298595D03*
X134190000Y-83568595D03*
X134190000Y-84838595D03*
X134190000Y-86108595D03*
X134190000Y-87378595D03*
X134190000Y-88648595D03*
X134190000Y-89918595D03*
X134190000Y-91188595D03*
X134190000Y-92458595D03*
X134190000Y-93728595D03*
%TD*%
M02*
