M48
; DRILL file {KiCad (6.0.0)} date Tue May  2 22:40:57 2023
; FORMAT={-:-/ absolute / inch / decimal}
; #@! TF.CreationDate,2023-05-02T22:40:57+02:00
; #@! TF.GenerationSoftware,Kicad,Pcbnew,(6.0.0)
; #@! TF.FileFunction,Plated,1,2,PTH
FMAT,2
INCH
; #@! TA.AperFunction,Plated,PTH,ViaDrill
T1C0.0157
; #@! TA.AperFunction,Plated,PTH,ComponentDrill
T2C0.0295
; #@! TA.AperFunction,Plated,PTH,ComponentDrill
T3C0.0394
%
G90
G05
T1
X2.7776Y-3.7939
X2.949Y-3.875
X3.0326Y-3.7559
X3.1666Y-3.7479
X3.214Y-3.108
X3.32Y-3.8407
X3.399Y-3.1
X3.4Y-3.8407
X3.441Y-3.915
X3.52Y-3.914
X3.5816Y-3.6899
X3.6256Y-3.6409
X3.654Y-3.872
X3.765Y-3.3294
X3.9076Y-3.8729
X4.558Y-3.7931
X4.736Y-3.873
X4.813Y-3.7551
X4.947Y-3.7471
X4.953Y-3.105
X5.101Y-3.84
X5.18Y-3.84
X5.195Y-3.072
X5.362Y-3.6891
X5.406Y-3.6401
X5.429Y-3.88
X5.5454Y-3.3286
X5.688Y-3.8721
X6.338Y-3.792
X6.521Y-3.864
X6.593Y-3.754
X6.727Y-3.746
X6.775Y-3.125
X6.881Y-3.8388
X6.96Y-3.8388
X6.973Y-3.084
X7.142Y-3.688
X7.186Y-3.639
X7.207Y-3.871
X7.3254Y-3.3275
X7.468Y-3.871
X7.834Y-3.639
X7.836Y-3.476
T2
X2.2255Y-3.3739
X2.2255Y-3.4526
X2.2255Y-3.5314
X2.2255Y-3.6101
X8.0235Y-3.3759
X8.0235Y-3.4546
X8.0235Y-3.5334
X8.0235Y-3.6121
T3
X2.5026Y-3.2589
X2.5026Y-3.3589
X2.5026Y-3.4589
X2.5026Y-3.5589
X2.5026Y-3.6589
X2.8026Y-3.2589
X2.8026Y-3.3589
X2.8026Y-3.4589
X2.8026Y-3.5589
X2.8026Y-3.6589
X2.9476Y-3.2589
X2.9476Y-3.3589
X2.9476Y-3.4589
X2.9476Y-3.5589
X2.9476Y-3.6589
X3.2476Y-3.2589
X3.2476Y-3.3589
X3.2476Y-3.4589
X3.2476Y-3.5589
X3.2476Y-3.6589
X3.3926Y-3.2579
X3.3926Y-3.3579
X3.3926Y-3.4579
X3.3926Y-3.5579
X3.3926Y-3.6579
X3.6926Y-3.2579
X3.6926Y-3.3579
X3.6926Y-3.4579
X3.6926Y-3.5579
X3.6926Y-3.6579
X3.8376Y-3.2579
X3.8376Y-3.3579
X3.8376Y-3.4579
X3.8376Y-3.5579
X3.8376Y-3.6579
X4.1376Y-3.2579
X4.1376Y-3.3579
X4.1376Y-3.4579
X4.1376Y-3.5579
X4.1376Y-3.6579
X4.283Y-3.2581
X4.283Y-3.3581
X4.283Y-3.4581
X4.283Y-3.5581
X4.283Y-3.6581
X4.583Y-3.2581
X4.583Y-3.3581
X4.583Y-3.4581
X4.583Y-3.5581
X4.583Y-3.6581
X4.728Y-3.2581
X4.728Y-3.3581
X4.728Y-3.4581
X4.728Y-3.5581
X4.728Y-3.6581
X5.028Y-3.2581
X5.028Y-3.3581
X5.028Y-3.4581
X5.028Y-3.5581
X5.028Y-3.6581
X5.173Y-3.2571
X5.173Y-3.3571
X5.173Y-3.4571
X5.173Y-3.5571
X5.173Y-3.6571
X5.473Y-3.2571
X5.473Y-3.3571
X5.473Y-3.4571
X5.473Y-3.5571
X5.473Y-3.6571
X5.618Y-3.2571
X5.618Y-3.3571
X5.618Y-3.4571
X5.618Y-3.5571
X5.618Y-3.6571
X5.918Y-3.2571
X5.918Y-3.3571
X5.918Y-3.4571
X5.918Y-3.5571
X5.918Y-3.6571
X6.063Y-3.257
X6.063Y-3.357
X6.063Y-3.457
X6.063Y-3.557
X6.063Y-3.657
X6.363Y-3.257
X6.363Y-3.357
X6.363Y-3.457
X6.363Y-3.557
X6.363Y-3.657
X6.508Y-3.257
X6.508Y-3.357
X6.508Y-3.457
X6.508Y-3.557
X6.508Y-3.657
X6.808Y-3.257
X6.808Y-3.357
X6.808Y-3.457
X6.808Y-3.557
X6.808Y-3.657
X6.953Y-3.256
X6.953Y-3.356
X6.953Y-3.456
X6.953Y-3.556
X6.953Y-3.656
X7.253Y-3.256
X7.253Y-3.356
X7.253Y-3.456
X7.253Y-3.556
X7.253Y-3.656
X7.398Y-3.256
X7.398Y-3.356
X7.398Y-3.456
X7.398Y-3.556
X7.398Y-3.656
X7.698Y-3.256
X7.698Y-3.356
X7.698Y-3.456
X7.698Y-3.556
X7.698Y-3.656
T0
M30
